<svg xmlns="http://www.w3.org/2000/svg" viewBox="0 0 19 19" height="19" width="19"><title>art-gallery.svg</title><rect fill="none" x="0" y="0" width="19" height="19"></rect><path fill="#7f7f7f" transform="translate(2 2)" d="m10.71 3-2.86-2.849996c-.1945-.1960996-.511-.1973996-.7071-.0029-.001.001-.0019.0019-.0029.0029l-2.85 2.849996h-2.79c-.2761 0-.5.2239-.5.5v9c0 .2761.2239.5.5.5h12c.2761 0 .5-.2239.5-.5v-9c0-.2761-.2239-.5-.5-.5zm-3.21-1.79 1.79 1.79h-3.58zm5.5 10.79h-11v-8h11zm-8-5c-.5523 0-1-.4477-1-1s.4477-1 1-1 1 .4477 1 1-.4477 1-1 1zm7 4h-7.5l1.5-3 1.25 2.5 2.25-4.5z"></path></svg>