<svg xmlns="http://www.w3.org/2000/svg" viewBox="0 0 19 19" height="19" width="19"><title>music.svg</title><rect fill="none" x="0" y="0" width="19" height="19"></rect><path fill="#7f7f7f" transform="translate(2 2)" d="m12.5 0c-.0804.0008-.1594.0213999-.23.0599999l-8.77 2.4400001c-.2761 0-.5.2239-.5.5v6.28c-.3029-.1798-.6478-.2763-1-.28-1.1046 0-2 .8954-2 2s.8954 2 2 2 2-.8954 2-2v-4.64l8-2.22v3.64c-.3029-.1798-.6478-.2763-1-.28-1.1046 0-2 .8954-2 2s.8954 2 2 2 2-.8954 2-2v-9c0-.2761-.2239-.5-.5-.5zm-.5 3.14-8 2.22v-2l8-2.22z"></path></svg>